<?xml version="1.0" encoding="utf-8"?>
<!-- Generator: Adobe Illustrator 25.2.1, SVG Export Plug-In . SVG Version: 6.00 Build 0)  -->
<svg version="1.1" id="Camada_1" xmlns="http://www.w3.org/2000/svg" xmlns:xlink="http://www.w3.org/1999/xlink" x="0px" y="0px"
	 viewBox="0 0 40 40" style="enable-background:new 0 0 40 40;" xml:space="preserve">
<style type="text/css">
	.st0{fill:url(#SVGID_1_);}
	.st1{fill:url(#SVGID_2_);}
	.st2{fill:url(#SVGID_3_);}
</style>
<g>
	<linearGradient id="SVGID_1_" gradientUnits="userSpaceOnUse" x1="0" y1="25.6294" x2="40" y2="25.6294">
		<stop  offset="0" style="stop-color:#70C4FF"/>
		<stop  offset="1" style="stop-color:#8DE8FF"/>
	</linearGradient>
	<path class="st0" d="M0.01,30.87c0.13-0.99,0.26-1.98,0.53-2.95c0.66-2.34,1.77-4.4,3.86-5.77c2.19-1.44,4.61-1.81,7.18-1.34
		c0.9,0.16,1.79,0.37,2.7,0.41c0.9,0.04,1.79-0.11,2.66-0.32c1.36-0.33,2.66-0.82,3.95-1.33c0.84-0.34,1.68-0.63,2.59-0.68
		c1.29-0.07,2.42,0.28,3.14,1.41c0.73,1.14,0.75,2.35,0.11,3.55c-0.35,0.65-0.92,1.05-1.62,1.27c-0.96,0.3-1.91,0.59-2.87,0.87
		c-1.38,0.41-2.77,0.82-4.05,1.51c-0.37,0.2-0.74,0.41-1.06,0.72c0.14,0.11,0.24,0.02,0.35,0c3.15-0.82,6.29-1.65,9.44-2.47
		c0.17-0.04,0.31-0.11,0.44-0.23c1.8-1.62,3.59-3.24,5.4-4.85c0.29-0.26,0.44-0.54,0.51-0.92c0.25-1.34,0.47-2.69,0.86-4
		c0.36-1.21,0.84-2.35,1.77-3.25c0.98-0.94,2.18-1.27,3.51-1.24c0.26,0.01,0.42,0.19,0.59,0.34c0,0.26,0,0.52,0,0.78
		c-0.12,0.73-0.25,1.46-0.37,2.19c-0.47,2.83-0.88,5.67-1.48,8.48c-0.07,0.35-0.23,0.62-0.48,0.86c-3.1,3.08-6.19,6.17-9.27,9.27
		c-0.36,0.36-0.75,0.57-1.23,0.69c-4.34,1.1-8.7,2.06-13.07,3.03c-1.3,0.29-2.04,1.05-2.18,2.35c-0.03,0.31-0.14,0.55-0.36,0.75
		c-3.76,0-7.52,0-11.29,0.01C0.05,40,0,39.95,0,39.72C0.01,36.77,0.01,33.82,0.01,30.87z"/>
	<linearGradient id="SVGID_2_" gradientUnits="userSpaceOnUse" x1="7.8316" y1="6.0056" x2="32.2938" y2="6.0056">
		<stop  offset="0" style="stop-color:#70C4FF"/>
		<stop  offset="1" style="stop-color:#8DE8FF"/>
	</linearGradient>
	<path class="st1" d="M19.35,9.48c0-0.64,0-1.27,0-1.91c0-0.14,0.03-0.32-0.22-0.2c-1.96,1-3.87,0.61-5.74-0.28
		c-1.81-0.86-3.22-2.22-4.45-3.78C8.61,2.88,8.28,2.44,7.98,1.99C7.69,1.54,7.83,1.07,8.33,0.92c2.4-0.73,4.84-1.22,7.34-0.71
		c1.63,0.33,3.09,1.09,4.18,2.41c0.14,0.17,0.21,0.16,0.35,0c1.59-1.74,3.6-2.54,5.94-2.59c1.86-0.04,3.67,0.3,5.46,0.81
		c0.74,0.21,0.9,0.66,0.45,1.28C30.7,4,29.22,5.75,27.18,6.9c-1.65,0.94-3.45,1.29-5.34,0.9c-0.28-0.06-0.56-0.14-0.81-0.29
		c-0.3-0.18-0.39-0.14-0.38,0.22c0.02,1.1,0.01,2.21,0.01,3.31c0,0.12,0,0.23-0.01,0.35c-0.03,0.36-0.29,0.6-0.64,0.61
		c-0.37,0.01-0.65-0.24-0.66-0.62C19.34,10.75,19.35,10.11,19.35,9.48C19.35,9.48,19.35,9.48,19.35,9.48z"/>
	<linearGradient id="SVGID_3_" gradientUnits="userSpaceOnUse" x1="10.5486" y1="17.3753" x2="30.7634" y2="17.3753">
		<stop  offset="0" style="stop-color:#70C4FF"/>
		<stop  offset="1" style="stop-color:#8DE8FF"/>
	</linearGradient>
	<path class="st2" d="M20.04,13.14c4.69,0.18,8.24,2.24,10.53,6.38c0.42,0.76,0.16,1.62-0.57,1.96c-0.76,0.36-1.56,0.01-1.89-0.82
		c-0.85-2.11-2.79-3.2-5.06-2.9c-1.49,0.2-2.86,0.75-4.25,1.26c-1.05,0.39-2.1,0.76-3.21,0.95c-1.34,0.23-2.64-0.02-3.94-0.29
		c-0.45-0.09-0.76-0.39-0.95-0.8c-0.24-0.54-0.17-1.06,0.2-1.5c2.03-2.38,4.6-3.77,7.7-4.16c0.24-0.03,0.49-0.06,0.74-0.07
		C19.57,13.13,19.8,13.14,20.04,13.14z"/>
</g>
</svg>
