<?xml version="1.0" encoding="utf-8"?>
<!-- Generator: Adobe Illustrator 25.2.1, SVG Export Plug-In . SVG Version: 6.00 Build 0)  -->
<svg version="1.1" id="Camada_1" xmlns="http://www.w3.org/2000/svg" xmlns:xlink="http://www.w3.org/1999/xlink" x="0px" y="0px"
	 viewBox="0 0 40 40" style="enable-background:new 0 0 40 40;" xml:space="preserve">
<style type="text/css">
	.st0{fill:url(#SVGID_1_);}
	.st1{fill:url(#SVGID_2_);}
</style>
<g>
	<linearGradient id="SVGID_1_" gradientUnits="userSpaceOnUse" x1="3.0039" y1="20.887" x2="36.9961" y2="20.887">
		<stop  offset="0" style="stop-color:#70C4FF"/>
		<stop  offset="1" style="stop-color:#8DE8FF"/>
	</linearGradient>
	<path class="st0" d="M24.78,40c-0.7,0-1.4,0-2.1,0c-0.83-0.16-1.65-0.33-2.44-0.63c-0.16-0.06-0.33-0.06-0.49,0
		c-0.86,0.34-1.77,0.52-2.69,0.63c-0.42,0-0.84,0-1.26,0c-1.88-0.21-3.54-0.9-5.01-2c-2.31-1.73-3.88-3.97-5.13-6.43
		C4.35,29,3.5,26.3,3.15,23.48c-0.3-2.45-0.17-4.85,0.89-7.16c1.68-3.67,5.33-5.93,9.6-5.94c1.67,0,3.27,0.33,4.81,0.93
		c0.36,0.14,0.51,0.08,0.64-0.26c0.33-0.8,0.68-1.59,1.05-2.38c0.98-2.13,2.08-4.21,3.39-6.18c0.51-0.77,1.02-0.89,1.91-0.5
		c0.66,0.29,1.32,0.57,1.97,0.86c0.22,0.09,0.43,0.18,0.64,0.29c0.54,0.27,0.57,0.59,0.11,0.97c-0.15,0.12-0.3,0.23-0.46,0.34
		c-2.62,1.81-4.65,4.11-6.35,6.68c-0.06,0.08-0.15,0.16-0.14,0.28c0.09,0.05,0.16,0,0.24-0.03c1.41-0.53,2.86-0.9,4.37-1.01
		c2.69-0.21,5.15,0.35,7.24,1.98c2.61,2.04,3.65,4.78,3.89,7.85c0.14,1.77-0.05,3.53-0.41,5.27c-0.7,3.38-1.95,6.57-4.04,9.43
		C30.61,37.47,28.26,39.48,24.78,40z"/>
	<linearGradient id="SVGID_2_" gradientUnits="userSpaceOnUse" x1="10.5935" y1="4.4156" x2="20.1112" y2="4.4156">
		<stop  offset="0" style="stop-color:#70C4FF"/>
		<stop  offset="1" style="stop-color:#8DE8FF"/>
	</linearGradient>
	<path class="st1" d="M12.64,0c2.62,0.19,5.13,1.23,6.56,3.9c0.64,1.19,0.94,2.47,0.9,3.81c-0.02,0.67-0.4,1.11-1.12,1.12
		c-2.89,0.04-6.2-1.08-7.64-4.24c-0.45-0.99-0.67-2.03-0.75-3.1C10.52,0.4,10.97-0.01,12.64,0z"/>
</g>
</svg>
