<?xml version="1.0" encoding="utf-8"?>
<!-- Generator: Adobe Illustrator 25.2.1, SVG Export Plug-In . SVG Version: 6.00 Build 0)  -->
<svg version="1.1" id="Camada_1" xmlns="http://www.w3.org/2000/svg" xmlns:xlink="http://www.w3.org/1999/xlink" x="0px" y="0px"
	 viewBox="0 0 40 40" style="enable-background:new 0 0 40 40;" xml:space="preserve">
<style type="text/css">
	.st0{fill:url(#SVGID_1_);}
	.st1{fill:url(#SVGID_2_);}
	.st2{fill:url(#SVGID_3_);}
	.st3{fill:url(#SVGID_4_);}
	.st4{fill:url(#SVGID_5_);}
	.st5{fill:url(#SVGID_6_);}
	.st6{fill:url(#SVGID_7_);}
	.st7{fill:url(#SVGID_8_);}
	.st8{fill:url(#SVGID_9_);}
	.st9{fill:url(#SVGID_10_);}
</style>
<g>
	<linearGradient id="SVGID_1_" gradientUnits="userSpaceOnUse" x1="0" y1="32.5628" x2="22.5965" y2="32.5628">
		<stop  offset="0" style="stop-color:#70C4FF"/>
		<stop  offset="1" style="stop-color:#8DE8FF"/>
	</linearGradient>
	<path class="st0" d="M0.01,25.94c0.29-0.59,0.75-0.82,1.42-0.82c6.58,0.01,13.15,0.01,19.73,0.01c1.01,0,1.44,0.43,1.44,1.45
		c0,4.32,0,8.63,0,12.95c0,0.16-0.02,0.31-0.03,0.47c-7.41,0-14.82,0-22.22,0.01C0.08,40,0,39.96,0,39.67
		C0.01,35.09,0.01,30.52,0.01,25.94z M11.27,36.06c1.99,0,3.98,0,5.97,0c0.94,0,1.4-0.46,1.4-1.39c0.01-1.39,0.01-2.78,0-4.17
		c0-0.95-0.46-1.41-1.42-1.41c-3.95,0-7.91,0-11.86,0c-0.96,0-1.42,0.45-1.42,1.4c0,1.38,0,2.76,0,4.14c0,0.98,0.45,1.43,1.43,1.43
		C7.34,36.06,9.3,36.06,11.27,36.06z"/>
	<linearGradient id="SVGID_2_" gradientUnits="userSpaceOnUse" x1="24.8759" y1="36.4684" x2="36.1109" y2="36.4684">
		<stop  offset="0" style="stop-color:#70C4FF"/>
		<stop  offset="1" style="stop-color:#8DE8FF"/>
	</linearGradient>
	<path class="st1" d="M24.91,39.99c-0.01-0.7-0.02-1.4-0.03-2.1c0-1.48,0.01-2.96-0.01-4.45c0-0.36,0.1-0.5,0.48-0.5
		c3.42,0.01,6.84,0.01,10.26,0c0.41,0,0.5,0.14,0.5,0.52c-0.02,1.69-0.03,3.38,0,5.07c0.01,0.67-0.21,1.16-0.82,1.46
		C31.83,39.99,28.37,39.99,24.91,39.99z"/>
	<linearGradient id="SVGID_3_" gradientUnits="userSpaceOnUse" x1="17.9232" y1="18.9131" x2="39.2461" y2="18.9131">
		<stop  offset="0" style="stop-color:#70C4FF"/>
		<stop  offset="1" style="stop-color:#8DE8FF"/>
	</linearGradient>
	<path class="st2" d="M28.58,7.1c3.4,0,6.79,0,10.19,0c0.5,0,0.51,0,0.45,0.49c-0.3,2.4-0.61,4.79-0.91,7.19
		c-0.3,2.35-0.59,4.69-0.89,7.04c-0.3,2.36-0.6,4.72-0.91,7.07c-0.06,0.44-0.15,0.88-0.16,1.31c-0.01,0.45-0.22,0.52-0.61,0.52
		c-3.03-0.01-6.06-0.01-9.09-0.01c-0.38,0-0.75,0-1.13,0c-0.63,0-0.63,0-0.63-0.61c0-1.57-0.02-3.15,0.01-4.72
		c0.02-1.35-0.3-2.53-1.41-3.39c-0.16-0.12-0.16-0.28-0.16-0.46c-0.01-0.64,0.02-1.27-0.05-1.91c-0.2-1.69-1.61-3-3.32-3.04
		c-0.82-0.02-0.7,0.09-0.83-0.77c-0.39-2.7-0.77-5.4-1.15-8.1c-0.01-0.04-0.01-0.08-0.02-0.12c-0.06-0.5-0.06-0.5,0.44-0.5
		c3.24,0,6.48,0,9.72,0C28.27,7.1,28.42,7.1,28.58,7.1z"/>
	<linearGradient id="SVGID_4_" gradientUnits="userSpaceOnUse" x1="17.1571" y1="2.4493" x2="40" y2="2.4493">
		<stop  offset="0" style="stop-color:#70C4FF"/>
		<stop  offset="1" style="stop-color:#8DE8FF"/>
	</linearGradient>
	<path class="st3" d="M28.58,4.81c-3.5,0-7-0.01-10.49,0.01c-0.37,0-0.53-0.09-0.57-0.48c-0.09-0.92-0.24-1.83-0.34-2.74
		c-0.1-1.01,0.38-1.52,1.38-1.52c6.68,0,13.37,0,20.05,0c0.97,0,1.47,0.5,1.38,1.45c-0.1,1.01-0.25,2.01-0.38,3.01
		c-0.02,0.19-0.11,0.28-0.3,0.27c-0.12,0-0.23,0-0.35,0C35.49,4.81,32.04,4.81,28.58,4.81z"/>
	<linearGradient id="SVGID_5_" gradientUnits="userSpaceOnUse" x1="1.5413" y1="20.8377" x2="21.0443" y2="20.8377">
		<stop  offset="0" style="stop-color:#70C4FF"/>
		<stop  offset="1" style="stop-color:#8DE8FF"/>
	</linearGradient>
	<path class="st4" d="M11.29,22.85c-3.07,0-6.14,0-9.21,0c-0.53,0-0.53,0-0.53-0.54c0-0.73,0-1.46,0-2.19c0-0.77,0.48-1.26,1.25-1.3
		c0.08,0,0.16,0,0.23,0c5.5,0,11.01,0,16.51,0c0.43,0,0.83,0.06,1.15,0.38c0.24,0.24,0.34,0.54,0.34,0.89
		c0,0.75-0.02,1.51,0.01,2.26c0.01,0.39-0.11,0.51-0.5,0.51C17.46,22.84,14.37,22.85,11.29,22.85z"/>
	<linearGradient id="SVGID_6_" gradientUnits="userSpaceOnUse" x1="6.6368" y1="14.5012" x2="15.6459" y2="14.5012">
		<stop  offset="0" style="stop-color:#70C4FF"/>
		<stop  offset="1" style="stop-color:#8DE8FF"/>
	</linearGradient>
	<path class="st5" d="M11.15,16.59c-1.39,0-2.78,0-4.18,0c-0.11,0-0.26,0.05-0.32-0.07c-0.06-0.14,0.1-0.19,0.17-0.27
		c0.89-0.88,1.61-1.86,2-3.08c0.22-0.69,0.98-0.96,1.71-0.62c1.35,0.63,2.61,1.41,3.74,2.38c0.43,0.37,0.82,0.77,1.17,1.2
		c0.09,0.11,0.24,0.22,0.18,0.36c-0.07,0.16-0.25,0.09-0.39,0.09C13.88,16.59,12.51,16.59,11.15,16.59z"/>
	<linearGradient id="SVGID_7_" gradientUnits="userSpaceOnUse" x1="7.3208" y1="3.031" x2="13.3828" y2="3.031">
		<stop  offset="0" style="stop-color:#70C4FF"/>
		<stop  offset="1" style="stop-color:#8DE8FF"/>
	</linearGradient>
	<path class="st6" d="M13.38,3.05c-0.01,0.69-0.51,1.2-1.27,1.2c-0.42,0-0.55,0.12-0.55,0.55c0,0.77-0.52,1.27-1.23,1.27
		c-0.69,0-1.2-0.51-1.19-1.27c0-0.42-0.12-0.55-0.55-0.55C7.84,4.25,7.33,3.74,7.32,3.05c-0.01-0.71,0.5-1.24,1.27-1.23
		c0.42,0,0.56-0.12,0.55-0.55C9.13,0.52,9.64,0.01,10.33,0c0.71-0.01,1.24,0.5,1.23,1.27c0,0.42,0.12,0.56,0.55,0.55
		C12.88,1.81,13.39,2.34,13.38,3.05z"/>
	<linearGradient id="SVGID_8_" gradientUnits="userSpaceOnUse" x1="1.1539" y1="3.0315" x2="3.547" y2="3.0315">
		<stop  offset="0" style="stop-color:#70C4FF"/>
		<stop  offset="1" style="stop-color:#8DE8FF"/>
	</linearGradient>
	<path class="st7" d="M3.55,3.05c-0.01,0.67-0.56,1.22-1.22,1.2C1.66,4.23,1.14,3.68,1.15,3c0.01-0.66,0.55-1.19,1.2-1.18
		C3.02,1.82,3.55,2.37,3.55,3.05z"/>
	<linearGradient id="SVGID_9_" gradientUnits="userSpaceOnUse" x1="4.6665" y1="9.237" x2="7.0599" y2="9.237">
		<stop  offset="0" style="stop-color:#70C4FF"/>
		<stop  offset="1" style="stop-color:#8DE8FF"/>
	</linearGradient>
	<path class="st8" d="M5.86,8.04c0.69,0,1.21,0.52,1.2,1.21c0,0.67-0.52,1.18-1.19,1.18c-0.69,0-1.21-0.52-1.2-1.21
		C4.67,8.56,5.19,8.04,5.86,8.04z"/>
	<linearGradient id="SVGID_10_" gradientUnits="userSpaceOnUse" x1="6.2255" y1="32.5774" x2="16.3596" y2="32.5774">
		<stop  offset="0" style="stop-color:#70C4FF"/>
		<stop  offset="1" style="stop-color:#8DE8FF"/>
	</linearGradient>
	<path class="st9" d="M11.29,31.38c1.53,0,3.07,0.01,4.6-0.01c0.35,0,0.49,0.1,0.47,0.46c-0.03,0.49-0.03,0.99,0,1.48
		c0.02,0.36-0.11,0.47-0.46,0.47c-2.74-0.01-5.49-0.01-8.23-0.01c-0.38,0-0.75-0.01-1.13,0c-0.21,0-0.31-0.08-0.31-0.3
		c0.01-0.6,0.01-1.2,0-1.79c-0.01-0.32,0.21-0.3,0.42-0.3C8.19,31.38,9.74,31.38,11.29,31.38z"/>
</g>
</svg>
