<?xml version="1.0" encoding="utf-8"?>
<!-- Generator: Adobe Illustrator 25.2.1, SVG Export Plug-In . SVG Version: 6.00 Build 0)  -->
<svg version="1.1" id="Camada_1" xmlns="http://www.w3.org/2000/svg" xmlns:xlink="http://www.w3.org/1999/xlink" x="0px" y="0px"
	 viewBox="0 0 40 40" style="enable-background:new 0 0 40 40;" xml:space="preserve">
<style type="text/css">
	.st0{fill:url(#SVGID_1_);}
	.st1{fill:url(#SVGID_2_);}
</style>
<g>
	<linearGradient id="SVGID_1_" gradientUnits="userSpaceOnUse" x1="0" y1="20" x2="40" y2="20">
		<stop  offset="0" style="stop-color:#70C4FF"/>
		<stop  offset="1" style="stop-color:#8DE8FF"/>
	</linearGradient>
	<path class="st0" d="M38.2,25.31c-1.36-0.82-3.09-0.77-4.45,0.08c-0.21,0.13-0.35,0.15-0.58,0.03c-0.78-0.42-1.56-0.82-2.35-1.21
		c-0.22-0.11-0.3-0.23-0.3-0.46c0.01-2.5,0.01-5,0-7.5c0-0.22,0.07-0.35,0.29-0.46c0.77-0.38,1.53-0.76,2.28-1.17
		c0.28-0.15,0.46-0.14,0.73,0.03c1.74,1.07,4.1,0.72,5.37-0.76c1.28-1.5,1.02-3.65-0.64-4.84c-1.29-0.92-2.75-1.08-4.24-0.43
		c-1.52,0.66-2.25,1.81-2.19,3.33c0.01,0.34-0.05,0.54-0.41,0.71c-0.75,0.35-1.48,0.74-2.21,1.12c-0.21,0.11-0.37,0.12-0.59,0
		c-2.43-1.26-4.86-2.5-7.29-3.74c-0.24-0.12-0.31-0.26-0.31-0.49c0.02-0.75,0.02-1.51,0-2.27c-0.01-0.31,0.08-0.47,0.42-0.61
		c1.67-0.7,2.53-2.34,2.13-3.94c-0.4-1.56-2-2.71-3.81-2.72c-1.83-0.01-3.46,1.11-3.88,2.69c-0.44,1.61,0.43,3.25,2.12,3.98
		c0.27,0.12,0.43,0.22,0.42,0.53c-0.03,0.79,0,1.59-0.02,2.38c0,0.14-0.13,0.35-0.26,0.42c-2.45,1.27-4.9,2.54-7.37,3.79
		c-0.12,0.06-0.34,0.07-0.46,0.01c-0.83-0.41-1.66-0.83-2.47-1.27c-0.12-0.07-0.2-0.25-0.22-0.39c-0.06-0.4-0.01-0.81-0.11-1.2
		C7.33,9.14,5.3,7.96,3.25,8.3c-2.06,0.33-3.49,2.06-3.22,3.87c0.41,2.69,3.72,3.99,6.22,2.44c0.19-0.12,0.32-0.16,0.54-0.04
		c0.79,0.42,1.59,0.83,2.39,1.23c0.23,0.11,0.29,0.25,0.29,0.47c-0.01,2.5-0.01,5,0,7.5c0,0.23-0.08,0.35-0.3,0.46
		c-0.75,0.37-1.5,0.75-2.24,1.15c-0.28,0.15-0.47,0.17-0.77-0.02c-1.82-1.12-4.31-0.67-5.52,0.97c-1.21,1.64-0.68,3.87,1.2,4.89
		c1.33,0.73,2.73,0.76,4.08,0.06c1.39-0.72,2.03-1.84,1.95-3.26c-0.02-0.32,0.07-0.49,0.39-0.64c0.76-0.36,1.51-0.75,2.24-1.15
		c0.22-0.12,0.38-0.11,0.59,0c2.43,1.25,4.86,2.5,7.29,3.74c0.22,0.11,0.3,0.23,0.3,0.46c-0.01,0.78-0.02,1.56,0,2.34
		c0.01,0.29-0.09,0.42-0.39,0.55c-2.73,1.16-3.06,4.46-0.58,6.01c0.51,0.32,1.16,0.45,1.75,0.67c0.35,0,0.7,0,1.05,0
		c0.04-0.02,0.08-0.04,0.12-0.05c1.88-0.38,3.08-1.49,3.28-3.09c0.21-1.64-0.9-3.08-2.38-3.62c-0.11-0.04-0.21-0.2-0.22-0.31
		c-0.02-0.85-0.02-1.69,0-2.54c0-0.13,0.12-0.32,0.25-0.39c2.45-1.27,4.91-2.53,7.37-3.78c0.14-0.07,0.39-0.06,0.54,0.01
		c0.71,0.34,1.38,0.73,2.1,1.05c0.42,0.19,0.55,0.41,0.54,0.84c-0.09,2.3,2.26,4.05,4.74,3.55c1.59-0.32,2.82-1.42,3.06-2.79
		C40.19,27.39,39.62,26.16,38.2,25.31z M36.04,10.59c0.73,0,1.32,0.51,1.32,1.16c0,0.64-0.58,1.16-1.31,1.17
		c-0.74,0-1.31-0.5-1.31-1.15C34.74,11.1,35.31,10.6,36.04,10.59z M3.96,12.92c-0.73,0-1.32-0.51-1.32-1.16
		c0-0.64,0.58-1.16,1.31-1.17c0.73,0,1.31,0.5,1.31,1.16C5.26,12.41,4.69,12.92,3.96,12.92z M3.96,29.4
		c-0.73,0.01-1.32-0.5-1.33-1.15c-0.01-0.64,0.58-1.17,1.3-1.17c0.74,0,1.31,0.5,1.32,1.15C5.26,28.89,4.7,29.4,3.96,29.4z
		 M18.68,3.49c0.01-0.63,0.62-1.15,1.33-1.15c0.71,0.01,1.3,0.54,1.3,1.17c0,0.65-0.63,1.19-1.35,1.17
		C19.25,4.67,18.67,4.12,18.68,3.49z M21.31,36.47c0.01,0.65-0.6,1.19-1.33,1.19c-0.71-0.01-1.3-0.54-1.3-1.17
		c0-0.63,0.6-1.16,1.31-1.17C20.7,35.31,21.31,35.84,21.31,36.47z M27.56,24.23c-2.41,1.23-4.81,2.46-7.21,3.7
		c-0.24,0.13-0.42,0.14-0.68,0.01c-2.41-1.25-4.83-2.49-7.25-3.73c-0.23-0.12-0.32-0.24-0.32-0.49c0.01-2.49,0.01-4.97,0-7.46
		c0-0.24,0.1-0.37,0.32-0.48c2.42-1.23,4.84-2.48,7.25-3.72c0.23-0.12,0.4-0.13,0.64-0.01c2.42,1.25,4.86,2.5,7.29,3.74
		c0.22,0.11,0.3,0.24,0.3,0.46c-0.01,1.25-0.01,2.5-0.01,3.75c0,1.24-0.01,2.47,0.01,3.71C27.9,23.97,27.81,24.1,27.56,24.23z
		 M36.02,29.4c-0.74-0.01-1.29-0.52-1.28-1.18c0.01-0.65,0.59-1.15,1.33-1.14c0.72,0.01,1.31,0.55,1.29,1.19
		C37.35,28.91,36.76,29.41,36.02,29.4z"/>
	<linearGradient id="SVGID_2_" gradientUnits="userSpaceOnUse" x1="14.7402" y1="19.9954" x2="25.2628" y2="19.9954">
		<stop  offset="0" style="stop-color:#70C4FF"/>
		<stop  offset="1" style="stop-color:#8DE8FF"/>
	</linearGradient>
	<path class="st1" d="M25.26,20.01c0-0.81,0.01-1.61-0.01-2.42c0-0.14-0.11-0.33-0.24-0.4c-1.58-0.83-3.18-1.65-4.78-2.46
		c-0.12-0.06-0.34-0.06-0.46,0.01c-1.6,0.81-3.2,1.63-4.78,2.46c-0.12,0.06-0.23,0.24-0.23,0.36c-0.02,1.63-0.02,3.25,0,4.88
		c0,0.13,0.13,0.32,0.26,0.38c1.57,0.83,3.15,1.64,4.74,2.44c0.13,0.06,0.37,0.07,0.5,0c1.58-0.79,3.14-1.61,4.72-2.4
		c0.22-0.11,0.3-0.24,0.3-0.46C25.25,21.59,25.26,20.8,25.26,20.01z M23.12,21.6L20,23.21l-3.12-1.6V18.4l3.12-1.6l3.12,1.6V21.6z"
		/>
</g>
</svg>
