<?xml version="1.0" encoding="utf-8"?>
<!-- Generator: Adobe Illustrator 25.2.1, SVG Export Plug-In . SVG Version: 6.00 Build 0)  -->
<svg version="1.1" id="Camada_1" xmlns="http://www.w3.org/2000/svg" xmlns:xlink="http://www.w3.org/1999/xlink" x="0px" y="0px"
	 viewBox="0 0 40 40" style="enable-background:new 0 0 40 40;" xml:space="preserve">
<style type="text/css">
	.st0{fill:url(#SVGID_1_);}
</style>
<g>
	<linearGradient id="SVGID_1_" gradientUnits="userSpaceOnUse" x1="-9.094947e-13" y1="20" x2="40" y2="20">
		<stop  offset="0" style="stop-color:#70C4FF"/>
		<stop  offset="1" style="stop-color:#8DE8FF"/>
	</linearGradient>
	<path class="st0" d="M19.21,0c0.52,0,1.04,0,1.56,0c0.05,0.02,0.1,0.04,0.15,0.05c2.49,0.54,3.97,2.87,3.67,5.11
		c-0.03,0.24,0.1,0.32,0.28,0.4c1.45,0.67,2.91,1.34,4.36,2.02c0.24,0.11,0.4,0.08,0.6-0.08c1.19-0.99,2.55-1.46,4.1-1.44
		c3.23,0.04,5.97,2.71,6.08,5.95c0.09,2.75-1.56,5.18-4.17,6.11c-0.33,0.12-0.44,0.28-0.43,0.62c0.02,1.33,0.01,2.66,0,3.98
		c0,0.3,0.09,0.47,0.37,0.6c1.72,0.85,2.64,2.27,2.66,4.17c0.02,1.83-0.84,3.24-2.45,4.11c-1.6,0.86-3.21,0.75-4.74-0.23
		c-0.26-0.17-0.46-0.19-0.75-0.06c-1.27,0.61-2.54,1.2-3.82,1.77c-0.36,0.16-0.49,0.36-0.49,0.77c0,1.69-0.61,3.14-1.8,4.36
		c-0.97,0.99-2.17,1.54-3.52,1.8c-0.57,0-1.15,0-1.72,0c-0.02-0.01-0.05-0.02-0.07-0.03c-3.24-0.49-5.43-3.4-5.26-6.3
		c0.02-0.29-0.13-0.42-0.36-0.52c-1.31-0.6-2.63-1.2-3.93-1.83c-0.31-0.15-0.53-0.13-0.81,0.06c-0.98,0.68-2.08,0.89-3.24,0.71
		c-2.06-0.31-3.6-1.92-3.9-3.98c-0.28-1.95,0.79-3.91,2.64-4.8c0.29-0.14,0.39-0.32,0.39-0.63c-0.01-1.31-0.01-2.63,0-3.94
		c0-0.34-0.09-0.52-0.43-0.62c-0.61-0.19-1.17-0.5-1.69-0.89C1.08,16.2,0.3,14.81,0,13.12c0-0.57,0-1.15,0-1.72
		c0.02-0.08,0.04-0.15,0.05-0.23C0.97,6.44,6.38,4.47,10.14,7.5c0.2,0.16,0.36,0.19,0.6,0.08c1.4-0.66,2.8-1.31,4.21-1.95
		c0.3-0.14,0.44-0.31,0.41-0.65c-0.06-0.76,0.03-1.51,0.35-2.21C16.4,1.24,17.59,0.36,19.21,0z M27.78,10.68
		c0.06-0.24-0.13-0.28-0.28-0.35c-1.4-0.65-2.81-1.29-4.21-1.96c-0.27-0.13-0.47-0.11-0.71,0.06c-1.6,1.1-3.58,1.1-5.2,0
		c-0.25-0.17-0.45-0.19-0.72-0.06c-1.39,0.66-2.78,1.3-4.18,1.93c-0.28,0.13-0.35,0.28-0.27,0.57c0.19,0.71,0.23,1.45,0.11,2.17
		c-0.41,2.52-1.81,4.23-4.22,5.1c-0.25,0.09-0.35,0.22-0.34,0.49c0.01,1.38,0.01,2.76,0,4.14c0,0.25,0.08,0.4,0.32,0.52
		c1.95,0.97,2.83,2.57,2.71,4.72c-0.01,0.26,0.04,0.4,0.29,0.51c1.16,0.53,2.32,1.06,3.47,1.61c0.26,0.12,0.41,0.08,0.59-0.15
		c2.48-3.15,7.18-3.15,9.69-0.01c0.19,0.24,0.34,0.29,0.62,0.15c1.1-0.53,2.21-1.05,3.33-1.54c0.36-0.16,0.44-0.37,0.41-0.73
		c-0.14-1.94,0.86-3.66,2.6-4.51c0.29-0.14,0.4-0.32,0.39-0.63c-0.01-1.3-0.02-2.6,0-3.91c0.01-0.4-0.13-0.58-0.51-0.73
		c-2.43-0.97-3.8-2.76-4.06-5.39C27.54,12.01,27.63,11.34,27.78,10.68z M33.76,15.23c1.67,0.01,2.99-1.28,3-2.94
		c0.01-1.68-1.3-3.02-2.97-3.03c-1.61-0.01-2.99,1.36-3,2.98C30.79,13.88,32.11,15.21,33.76,15.23z M9.14,12.27
		c0.01-1.65-1.29-3.02-2.95-3c-1.71,0.02-2.98,1.27-3.01,3c-0.03,1.64,1.33,2.96,2.98,2.97C7.83,15.23,9.13,13.94,9.14,12.27z
		 M19.99,30.86c-1.65-0.01-3.01,1.29-3,2.95c0.01,1.68,1.24,2.98,2.99,3.01c1.64,0.03,2.96-1.33,2.97-2.98
		C22.95,32.17,21.66,30.87,19.99,30.86z M33.79,26.1c-0.81,0-1.44,0.63-1.43,1.43c0.01,0.76,0.67,1.42,1.43,1.42
		c0.79,0,1.42-0.64,1.42-1.45C35.19,26.69,34.6,26.11,33.79,26.1z M7.57,27.53C7.58,26.72,7,26.12,6.19,26.1
		c-0.81-0.01-1.46,0.61-1.46,1.4c0,0.78,0.67,1.45,1.44,1.44C6.95,28.95,7.57,28.32,7.57,27.53z M21.38,4.61
		c0-0.8-0.6-1.42-1.39-1.44c-0.78-0.02-1.45,0.64-1.46,1.43c-0.01,0.79,0.64,1.42,1.45,1.42C20.79,6.01,21.38,5.42,21.38,4.61z"/>
</g>
</svg>
