<?xml version="1.0" encoding="utf-8"?>
<!-- Generator: Adobe Illustrator 25.2.1, SVG Export Plug-In . SVG Version: 6.00 Build 0)  -->
<svg version="1.1" id="Camada_1" xmlns="http://www.w3.org/2000/svg" xmlns:xlink="http://www.w3.org/1999/xlink" x="0px" y="0px"
	 viewBox="0 0 40 40" style="enable-background:new 0 0 40 40;" xml:space="preserve">
<style type="text/css">
	.st0{fill:url(#SVGID_1_);}
</style>
<g>
	<linearGradient id="SVGID_1_" gradientUnits="userSpaceOnUse" x1="4.8923" y1="20" x2="35.1077" y2="20">
		<stop  offset="0" style="stop-color:#70C4FF"/>
		<stop  offset="1" style="stop-color:#8DE8FF"/>
	</linearGradient>
	<path class="st0" d="M20.33,0c0.21,0.19,0.34,0.43,0.47,0.68c0.66,1.31,1.54,2.49,2.4,3.68c2.18,3.01,4.44,5.96,6.49,9.05
		c1.66,2.5,3.22,5.06,4.38,7.82c1.75,4.15,1.22,8.11-1.16,11.88c-1.92,3.04-4.72,5.11-8.29,6.18c-3.74,1.13-7.44,0.92-11.01-0.65
		c-3.49-1.53-6-4-7.52-7.31c-1.55-3.39-1.61-6.82-0.12-10.27c1.21-2.8,2.79-5.4,4.48-7.94c2.18-3.27,4.59-6.4,6.89-9.6
		c0.71-0.99,1.43-1.98,1.96-3.07c0.1-0.2,0.25-0.34,0.45-0.45C19.94,0,20.14,0,20.33,0z"/>
</g>
</svg>
