<?xml version="1.0" encoding="utf-8"?>
<!-- Generator: Adobe Illustrator 25.2.1, SVG Export Plug-In . SVG Version: 6.00 Build 0)  -->
<svg version="1.1" id="Camada_1" xmlns="http://www.w3.org/2000/svg" xmlns:xlink="http://www.w3.org/1999/xlink" x="0px" y="0px"
	 viewBox="0 0 40 40" style="enable-background:new 0 0 40 40;" xml:space="preserve">
<style type="text/css">
	.st0{fill:url(#SVGID_1_);}
	.st1{fill:url(#SVGID_2_);}
</style>
<g>
	<linearGradient id="SVGID_1_" gradientUnits="userSpaceOnUse" x1="0.0378" y1="28.2468" x2="39.9623" y2="28.2468">
		<stop  offset="0" style="stop-color:#70C4FF"/>
		<stop  offset="1" style="stop-color:#8DE8FF"/>
	</linearGradient>
	<path class="st0" d="M11.27,39.97c-0.99-0.34-1.27-1.08-1.26-2.06c0.03-2.48,0.01-4.96,0.01-7.45c0-0.14,0-0.28,0-0.47
		c-0.16,0-0.3,0-0.44,0c-2.55,0-5.09,0-7.64,0c-1.32,0-1.9-0.58-1.9-1.9c0-2,0-4,0-6c0-0.13,0.01-0.25,0.02-0.42
		c0.18,0,0.33,0,0.48,0c3.13,0,6.26-0.01,9.39,0.01c0.65,0,1.16-0.16,1.58-0.66c0.34-0.4,0.74-0.76,1.15-1.17
		c0.07,0.19,0.12,0.32,0.17,0.45c0.78,2.27,1.54,4.54,2.33,6.81c0.37,1.06,1.43,1.46,2.43,0.94c0.47-0.24,0.67-0.67,0.82-1.13
		c1.07-3.28,2.15-6.56,3.22-9.84c0.05-0.16,0.11-0.32,0.19-0.55c0.26,0.65,0.5,1.23,0.73,1.81c0.29,0.72,0.57,1.45,0.87,2.17
		c0.3,0.72,0.81,1.15,1.64,1.15c4.92,0,9.85,0,14.77,0c0.04,0,0.08-0.01,0.12-0.02c0,2.37,0,4.73,0,7.1
		c-0.34,0.99-1.08,1.27-2.06,1.26c-2.49-0.03-4.99-0.01-7.48-0.01c-0.14,0-0.27,0-0.44,0c0,0.19,0,0.33,0,0.47
		c0,2.48-0.02,4.96,0.01,7.45c0.01,0.99-0.27,1.72-1.26,2.06C22.91,39.97,17.09,39.97,11.27,39.97z"/>
	<linearGradient id="SVGID_2_" gradientUnits="userSpaceOnUse" x1="0.0377" y1="10.6614" x2="39.9623" y2="10.6614">
		<stop  offset="0" style="stop-color:#70C4FF"/>
		<stop  offset="1" style="stop-color:#8DE8FF"/>
	</linearGradient>
	<path class="st1" d="M39.96,18.36c-0.17-0.01-0.34-0.02-0.51-0.02c-4.28,0-8.55,0-12.83,0.01c-0.35,0-0.52-0.08-0.64-0.43
		c-0.86-2.33-1.74-4.64-2.62-6.96c-0.35-0.91-1.01-1.28-1.96-1.1c-0.63,0.12-1.03,0.5-1.23,1.11c-1.11,3.31-2.24,6.61-3.35,9.92
		c-0.04,0.11-0.08,0.22-0.14,0.4c-0.1-0.29-0.18-0.51-0.26-0.74c-0.45-1.4-0.89-2.79-1.35-4.19c-0.32-0.98-1.02-1.48-1.95-1.34
		c-0.29,0.04-0.6,0.2-0.81,0.4c-0.92,0.88-1.81,1.79-2.72,2.68c-0.13,0.12-0.33,0.24-0.49,0.24c-2.94,0.01-5.87,0.01-8.81,0.01
		c-0.06,0-0.13-0.01-0.22-0.02c-0.01-0.14-0.02-0.26-0.02-0.39c0-2.01,0-4.03,0-6.04c0-1.29,0.59-1.88,1.89-1.88
		c2.68,0,5.35,0,8.09,0c0-0.15,0-0.28,0-0.42c0-2.56,0-5.12,0-7.68c0-1.29,0.59-1.88,1.88-1.88c5.41,0,10.81,0,16.22,0
		c1.27,0,1.86,0.59,1.86,1.86c0,2.55,0,5.09,0,7.64c0,0.14,0,0.28,0,0.48c0.16,0,0.3,0,0.43,0c2.49,0,4.99,0.02,7.48-0.01
		c0.99-0.01,1.72,0.27,2.06,1.26C39.96,13.63,39.96,16,39.96,18.36z"/>
</g>
</svg>
