<svg xmlns="http://www.w3.org/2000/svg" viewBox="0 0 762.33 238.54"><defs><style>.cls-1{fill:#312783;}</style></defs><g id="Camada_2" data-name="Camada 2"><g id="Camada_1-2" data-name="Camada 1"><path class="cls-1" d="M171.5,44.65,97.92,2.17a16.27,16.27,0,0,0-16.23,0L8.11,44.65A16.23,16.23,0,0,0,0,58.71v85a16.21,16.21,0,0,0,8.11,14.05L81.69,200.2a16.23,16.23,0,0,0,16.23,0l73.58-42.48a16.21,16.21,0,0,0,8.11-14.05v-85A16.23,16.23,0,0,0,171.5,44.65ZM97.05,129a3.7,3.7,0,0,0,.55.31,15.52,15.52,0,1,1-15.75.1,4.68,4.68,0,0,0,.9-.5h0a6.33,6.33,0,0,0-.18-10.63h0c-.47-.2-.93-.42-1.37-.66a18.54,18.54,0,0,1-.15-32.77,16,16,0,0,1,1.68-.79l0,0a6.34,6.34,0,0,0-.29-10.7.07.07,0,0,0-.06,0,1.65,1.65,0,0,0-.31-.18,15.5,15.5,0,1,1,15.29.07A6.34,6.34,0,0,0,97,84.08c.52.22,1,.46,1.54.73a18.55,18.55,0,0,1-.19,32.85c-.37.2-.76.38-1.15.55A6.32,6.32,0,0,0,97.05,129Z"/><path class="cls-1" d="M308.69,141.85A37.33,37.33,0,0,1,293.76,139a30.34,30.34,0,0,1-11.34-8.41,39,39,0,0,1-7.26-13.78,64,64,0,0,1-2.56-19,63.54,63.54,0,0,1,2.56-18.9,39.79,39.79,0,0,1,7.26-13.78,30.28,30.28,0,0,1,11.34-8.47,40.24,40.24,0,0,1,29.8,0A30.17,30.17,0,0,1,335,65.16a39.79,39.79,0,0,1,7.26,13.78,63.54,63.54,0,0,1,2.56,18.9,64,64,0,0,1-2.56,19A39,39,0,0,1,335,130.57a30.23,30.23,0,0,1-11.4,8.41A37.45,37.45,0,0,1,308.69,141.85Zm0-9a25.83,25.83,0,0,0,10.12-2,22.54,22.54,0,0,0,8-5.63,25.7,25.7,0,0,0,5.18-8.81,34.09,34.09,0,0,0,1.83-11.5V90.74A34.13,34.13,0,0,0,332,79.24a25.8,25.8,0,0,0-5.18-8.81,22.64,22.64,0,0,0-8-5.62,27.11,27.11,0,0,0-20.24,0,22.52,22.52,0,0,0-8,5.62,25.48,25.48,0,0,0-5.18,8.81,34.13,34.13,0,0,0-1.83,11.5v14.19a34.09,34.09,0,0,0,1.83,11.5,25.39,25.39,0,0,0,5.18,8.81,22.42,22.42,0,0,0,8,5.63A25.83,25.83,0,0,0,308.69,132.83Z"/><path class="cls-1" d="M362.21,140.39V77.48H372V89.06h.61a19,19,0,0,1,6.1-8q4.4-3.53,12.07-3.53h3.78v9.75h-5.73q-7.94,0-12.38,3c-3,2-4.45,4.49-4.45,7.5v42.67Z"/><path class="cls-1" d="M411.83,62.73c-2.11,0-3.64-.51-4.57-1.53a5.57,5.57,0,0,1-1.4-4V55.65a5.61,5.61,0,0,1,1.4-4c.93-1,2.46-1.52,4.57-1.52s3.64.51,4.57,1.52a5.65,5.65,0,0,1,1.4,4v1.59a5.62,5.62,0,0,1-1.4,4C415.47,62.22,413.94,62.73,411.83,62.73ZM407,77.48h9.76v62.91H407Z"/><path class="cls-1" d="M490.47,147.4q0,9.72-7.62,14.27T460,166.23q-14.76,0-21.22-4a12.73,12.73,0,0,1-6.46-11.44c0-3.41.9-6.07,2.68-8a15.74,15.74,0,0,1,7.32-4.2v-1.34a9,9,0,0,1-5.61-8.74,8.79,8.79,0,0,1,3.05-7.22,20,20,0,0,1,7.8-3.71v-.48a20.37,20.37,0,0,1-8.72-7.7,21.64,21.64,0,0,1-3.1-11.62,22.27,22.27,0,0,1,1.7-8.8,19.79,19.79,0,0,1,4.82-6.91,21.91,21.91,0,0,1,7.43-4.47,30.41,30.41,0,0,1,21.64.85V77.36A10.34,10.34,0,0,1,473,71.24q1.71-2.42,5.61-2.42H488v8.66H476.08v4a20.58,20.58,0,0,1,5.3,7,21.79,21.79,0,0,1,1.89,9.23,22.53,22.53,0,0,1-1.7,8.81,19.89,19.89,0,0,1-4.82,6.91,21.89,21.89,0,0,1-7.5,4.46,28.45,28.45,0,0,1-9.75,1.59,30.78,30.78,0,0,1-6.1-.61,20.29,20.29,0,0,0-5.73,2.5,5.16,5.16,0,0,0-2.56,4.57,3.72,3.72,0,0,0,2.69,3.78,20.64,20.64,0,0,0,6.94,1h13.42q11.7,0,17,4.44C488.7,138.15,490.47,142.21,490.47,147.4Zm-9.15.67a7.29,7.29,0,0,0-2.86-6q-2.86-2.25-10.18-2.25h-21q-5.85,2.67-5.85,8.53a9.36,9.36,0,0,0,3.1,7.07q3.12,2.93,10.55,2.93h9q8.17,0,12.68-2.56A8.3,8.3,0,0,0,481.32,148.07ZM459.5,111.74c4.14,0,7.44-1,9.87-3s3.66-5.09,3.66-9.25V96.06q0-6.24-3.66-9.24c-2.43-2-5.73-3-9.87-3s-7.44,1-9.88,3S446,91.9,446,96.06v3.43q0,6.24,3.65,9.25T459.5,111.74Z"/><path class="cls-1" d="M506.68,62.73c-2.11,0-3.64-.51-4.57-1.53a5.57,5.57,0,0,1-1.4-4V55.65a5.61,5.61,0,0,1,1.4-4c.93-1,2.46-1.52,4.57-1.52s3.64.51,4.57,1.52a5.61,5.61,0,0,1,1.4,4v1.59a5.57,5.57,0,0,1-1.4,4C510.32,62.22,508.79,62.73,506.68,62.73ZM501.8,77.48h9.76v62.91H501.8Z"/><path class="cls-1" d="M532.28,140.39V77.48H542V87.6h.48a20.52,20.52,0,0,1,6.53-8.45Q553.25,76,560.32,76q9.75,0,15.42,6.28T581.41,100v40.36h-9.75V101.65q0-17-14.26-17a22.26,22.26,0,0,0-5.67.73,16.65,16.65,0,0,0-4.94,2.2,10.86,10.86,0,0,0-3.47,3.73A10.54,10.54,0,0,0,542,96.64v43.75Z"/><path class="cls-1" d="M642.61,140.39q-3.52,0-3.53-3.54V131h-.37a21.5,21.5,0,0,1-7,7.62q-4.69,3.23-13.22,3.23-9.51,0-14.7-4.45t-5.18-12.86a21.18,21.18,0,0,1,1.16-7.07,12.91,12.91,0,0,1,3.84-5.61,19.21,19.21,0,0,1,7.13-3.66,39,39,0,0,1,11-1.34h17.31v-9q0-9.51-4.45-13.9t-13.11-4.39A22.08,22.08,0,0,0,610,82.29a18,18,0,0,0-7.13,8.84l-2.19-1a22,22,0,0,1,7.37-9.45q4.82-3.48,13.47-3.48,10.13,0,15.12,5.18t5,15.06v40.6H652v2.32Zm-24.13-.86a27.35,27.35,0,0,0,7.86-1.1,19.81,19.81,0,0,0,6.52-3.23,16.09,16.09,0,0,0,4.51-5.36,15.78,15.78,0,0,0,1.71-7.5V109.05H621.89q-10.86,0-15.67,3.78a12,12,0,0,0-4.81,9.88v3.66c0,4.3,1.58,7.58,4.75,9.81S613.43,139.53,618.48,139.53Z"/><path class="cls-1" d="M670.78,140.39q-3.54,0-3.54-3.54V50.17h2.56v87.9h10.37v2.32Z"/><path class="cls-1" d="M699.06,58.34a2.59,2.59,0,0,1-2.19-.8,2.77,2.77,0,0,1-.61-1.76v-.86a2.77,2.77,0,0,1,.61-1.76,2.59,2.59,0,0,1,2.19-.8,2.63,2.63,0,0,1,2.2.8,2.82,2.82,0,0,1,.6,1.76v.86a2.82,2.82,0,0,1-.6,1.76A2.63,2.63,0,0,1,699.06,58.34ZM697.84,78.7h2.56v61.69h-2.56Z"/><path class="cls-1" d="M742,141.85a30.22,30.22,0,0,1-13-2.62,25.28,25.28,0,0,1-9.81-8.72l2.19-1.46a25,25,0,0,0,9,8.1A26,26,0,0,0,742,139.53c5.86,0,10.28-1.22,13.29-3.66s4.51-6,4.51-10.6-1.32-8-4-10.24-6.52-3.7-11.64-4.51l-5.37-.86q-8.16-1.22-12.86-4.93T721.25,93a14.54,14.54,0,0,1,1.52-6.83,14.73,14.73,0,0,1,4.15-4.93,17.55,17.55,0,0,1,6.15-3,28.84,28.84,0,0,1,7.68-1,31.82,31.82,0,0,1,7.14.73,23.16,23.16,0,0,1,5.54,2,24.26,24.26,0,0,1,4.33,2.86,29.06,29.06,0,0,1,3.35,3.29l-2,1.71c-1-1.06-2-2.09-3.1-3.11a18.86,18.86,0,0,0-3.78-2.68,20.47,20.47,0,0,0-4.94-1.83,27.82,27.82,0,0,0-6.46-.67q-7.68,0-12.38,3.35t-4.69,9.94q0,6.94,3.78,10t11.7,4.38l5.37.86a36.68,36.68,0,0,1,7.31,1.83,17.2,17.2,0,0,1,5.55,3.23,14,14,0,0,1,3.53,5,17.55,17.55,0,0,1,1.28,7q0,8-5.42,12.37T742,141.85Z"/><path class="cls-1" d="M296.75,202.88h12.66a7.75,7.75,0,0,1,5.85,2.16q2.08,2.16,2.09,6.38a9.34,9.34,0,0,1-1.28,5.23,6.7,6.7,0,0,1-3.64,2.66v.1a7.24,7.24,0,0,1,4.92,3,10.61,10.61,0,0,1,1.6,6.08,10.22,10.22,0,0,1-2.21,6.93c-1.47,1.71-3.65,2.56-6.52,2.56H296.75ZM297.86,219h11.55a7.83,7.83,0,0,0,3-.53,5.84,5.84,0,0,0,2.11-1.43,6,6,0,0,0,1.23-2.09,7.42,7.42,0,0,0,.4-2.43v-2.11a7.47,7.47,0,0,0-.4-2.44,5.91,5.91,0,0,0-1.23-2.08,5.71,5.71,0,0,0-2.11-1.43,7.64,7.64,0,0,0-3-.53H297.86Zm0,18h12.36a8.19,8.19,0,0,0,3.36-.63,6.84,6.84,0,0,0,2.34-1.66,6.74,6.74,0,0,0,1.38-2.36,8.63,8.63,0,0,0,.45-2.79v-2.11a8.76,8.76,0,0,0-.45-2.76,6.74,6.74,0,0,0-1.38-2.38,6.84,6.84,0,0,0-2.34-1.66,8.19,8.19,0,0,0-3.36-.63H297.86Z"/><path class="cls-1" d="M353.11,204.14a1.08,1.08,0,0,1-.91-.33,1.19,1.19,0,0,1-.25-.73v-.35a1.19,1.19,0,0,1,.25-.72,1.41,1.41,0,0,1,1.81,0,1.13,1.13,0,0,1,.25.72v.35a1.13,1.13,0,0,1-.25.73A1.07,1.07,0,0,1,353.11,204.14Zm-.51,8.39h1.06v25.41H352.6Z"/><path class="cls-1" d="M397.61,238.54a9.53,9.53,0,0,1-7.79-3.34q-2.76-3.33-2.76-10t2.76-10a10.74,10.74,0,0,1,15.57,0q2.76,3.35,2.76,10t-2.76,10A9.53,9.53,0,0,1,397.61,238.54Zm0-.95a8.46,8.46,0,0,0,7-3c1.6-2,2.41-4.71,2.41-8.16V224c0-3.45-.81-6.17-2.41-8.16a9.65,9.65,0,0,0-14,0c-1.6,2-2.41,4.71-2.41,8.16v2.41c0,3.45.81,6.17,2.41,8.16A8.47,8.47,0,0,0,397.61,237.59Z"/><path class="cls-1" d="M444,237.94a1.28,1.28,0,0,1-1.45-1.45v-23h-4.77v-.95h3.61a1.16,1.16,0,0,0,.93-.28,1.58,1.58,0,0,0,.23-1v-6h1.05v7.24h6.08v.95h-6.08V237h5.68v.95Z"/><path class="cls-1" d="M490.37,238.54a9.66,9.66,0,0,1-7.83-3.34q-2.82-3.33-2.82-10t2.77-9.94a9.4,9.4,0,0,1,7.68-3.37,9.85,9.85,0,0,1,4.19.88,9.18,9.18,0,0,1,3.24,2.54,12,12,0,0,1,2.11,4,16.85,16.85,0,0,1,.76,5.25v.5H480.88v1.36q0,5.17,2.46,8.16a8.59,8.59,0,0,0,7,3q6.44,0,8.79-6.23l.9.35a10.59,10.59,0,0,1-3.59,5A9.87,9.87,0,0,1,490.37,238.54Zm-.2-25.66a8.34,8.34,0,0,0-6.88,3q-2.42,3-2.41,8.16v.1h18.43v-.2a15,15,0,0,0-.65-4.55,10.58,10.58,0,0,0-1.86-3.49,8.15,8.15,0,0,0-2.89-2.23A8.79,8.79,0,0,0,490.17,212.88Z"/><path class="cls-1" d="M542.15,238.54a9.51,9.51,0,0,1-7.78-3.34q-2.76-3.33-2.76-10t2.76-10a9.54,9.54,0,0,1,7.78-3.34,9,9,0,0,1,5.08,1.39,9.5,9.5,0,0,1,3.21,3.64l-.9.45A9.42,9.42,0,0,0,546.6,214a7.89,7.89,0,0,0-4.45-1.15,8.46,8.46,0,0,0-7,3q-2.42,3-2.41,8.16v2.41q0,5.17,2.41,8.16a8.46,8.46,0,0,0,7,3,9.16,9.16,0,0,0,4.85-1.16,8.91,8.91,0,0,0,3.09-3.26l.8.55a10,10,0,0,1-3.34,3.49A9.86,9.86,0,0,1,542.15,238.54Z"/><path class="cls-1" d="M583.44,200.78h1v15.56h.15a6.84,6.84,0,0,1,2.59-3.06,9.22,9.22,0,0,1,5.35-1.36,8.35,8.35,0,0,1,6.5,2.47q2.24,2.46,2.24,7.23v16.32h-1.06V221.82c0-3.12-.67-5.38-2-6.81a7.55,7.55,0,0,0-5.77-2.13,10.43,10.43,0,0,0-3,.43,7.56,7.56,0,0,0-2.57,1.28,6.18,6.18,0,0,0-1.75,2.16,6.57,6.57,0,0,0-.66,3v18.18h-1Z"/></g></g></svg>